<svg width="24" height="16" viewBox="0 0 24 16" fill="none" xmlns="http://www.w3.org/2000/svg">
<path d="M9.65386 6.89076C10.976 6.25936 11.6661 5.30395 11.6661 3.81684C11.6661 0.884156 9.47924 0.169678 6.95558 0.169678H0.00823975V14.8913H7.15099C9.82848 14.8913 12.3438 13.6077 12.3438 10.6168C12.3438 8.76834 11.4666 7.40169 9.65386 6.89076ZM3.24701 2.68281H6.28621C7.45449 2.68281 8.50636 3.01098 8.50636 4.36516C8.50636 5.6155 7.68732 6.11813 6.53151 6.11813H3.24701V2.68281ZM6.71028 12.3906H3.24701V8.33633H6.7768C8.20286 8.33633 9.10506 8.93035 9.10506 10.4382C9.10506 11.9253 8.02824 12.3906 6.71028 12.3906ZM21.6153 2.39204H15.6408V0.942311H21.6153V2.39204ZM23.956 9.71544C23.956 6.5626 22.11 3.93315 18.7632 3.93315C15.5119 3.93315 13.3042 6.37567 13.3042 9.57421C13.3042 12.8932 15.3955 15.1696 18.7632 15.1696C21.3118 15.1696 22.9623 14.0231 23.7564 11.5847H21.1704C20.8918 12.4944 19.7443 12.9763 18.8546 12.9763C17.1375 12.9763 16.2353 11.971 16.2353 10.2638H23.931C23.9435 10.0893 23.956 9.90237 23.956 9.71544ZM16.2395 8.41941C16.3351 7.01953 17.2664 6.14305 18.6717 6.14305C20.1435 6.14305 20.8835 7.00707 21.0083 8.41941H16.2395Z" fill="#FFFEF7"/>
</svg>
