<svg width="24" height="25" viewBox="0 0 24 25" fill="none" xmlns="http://www.w3.org/2000/svg">
<path d="M11.9874 6.35312C8.58736 6.35312 5.84485 9.09518 5.84485 12.4947C5.84485 15.8942 8.58736 18.6362 11.9874 18.6362C15.3875 18.6362 18.13 15.8942 18.13 12.4947C18.13 9.09518 15.3875 6.35312 11.9874 6.35312ZM11.9874 16.4875C9.79022 16.4875 7.99395 14.6969 7.99395 12.4947C7.99395 10.2925 9.78487 8.50187 11.9874 8.50187C14.19 8.50187 15.9809 10.2925 15.9809 12.4947C15.9809 14.6969 14.1846 16.4875 11.9874 16.4875ZM19.814 6.1019C19.814 6.89833 19.1725 7.5344 18.3813 7.5344C17.5847 7.5344 16.9485 6.89298 16.9485 6.1019C16.9485 5.31082 17.5901 4.66941 18.3813 4.66941C19.1725 4.66941 19.814 5.31082 19.814 6.1019ZM23.8823 7.55578C23.7914 5.63688 23.3531 3.93713 21.9471 2.5367C20.5464 1.13628 18.8464 0.697976 16.9272 0.601764C14.9491 0.489516 9.02039 0.489516 7.04236 0.601764C5.12849 0.692631 3.42845 1.13093 2.02245 2.53136C0.616447 3.93178 0.183419 5.63153 0.0871905 7.55043C-0.0250759 9.52813 -0.0250759 15.4559 0.0871905 17.4336C0.178073 19.3525 0.616447 21.0522 2.02245 22.4527C3.42845 23.8531 5.12314 24.2914 7.04236 24.3876C9.02039 24.4998 14.9491 24.4998 16.9272 24.3876C18.8464 24.2967 20.5464 23.8584 21.9471 22.4527C23.3477 21.0522 23.7861 19.3525 23.8823 17.4336C23.9946 15.4559 23.9946 9.53348 23.8823 7.55578ZM21.3269 19.5556C20.9099 20.6032 20.1027 21.4104 19.0495 21.8326C17.4725 22.458 13.7302 22.3137 11.9874 22.3137C10.2446 22.3137 6.49707 22.4527 4.92534 21.8326C3.87752 21.4157 3.07027 20.6086 2.64793 19.5556C2.02245 17.9788 2.16679 14.2372 2.16679 12.4947C2.16679 10.7522 2.0278 7.00523 2.64793 5.43376C3.06492 4.38612 3.87217 3.579 4.92534 3.15674C6.50242 2.53136 10.2446 2.67567 11.9874 2.67567C13.7302 2.67567 17.4778 2.5367 19.0495 3.15674C20.0973 3.57366 20.9046 4.38077 21.3269 5.43376C21.9524 7.01058 21.8081 10.7522 21.8081 12.4947C21.8081 14.2372 21.9524 17.9841 21.3269 19.5556Z" fill="#FFFEF7"/>
</svg>
