<svg width="24" height="25" viewBox="0 0 24 25" fill="none" xmlns="http://www.w3.org/2000/svg">
<path d="M5.36807 24.3478H0.402686V8.36047H5.36807V24.3478ZM2.8827 6.17965C1.29494 6.17965 0.00708008 4.86475 0.00708008 3.27725C0.00708009 2.51471 0.310047 1.7834 0.849331 1.24421C1.38862 0.705016 2.12004 0.4021 2.8827 0.4021C3.64537 0.4021 4.37679 0.705016 4.91608 1.24421C5.45536 1.7834 5.75833 2.51471 5.75833 3.27725C5.75833 4.86475 4.46994 6.17965 2.8827 6.17965ZM23.9519 24.3478H18.9972V16.5652C18.9972 14.7105 18.9598 12.3319 16.4156 12.3319C13.834 12.3319 13.4384 14.347 13.4384 16.4316V24.3478H8.47838V8.36047H13.2406V10.5413H13.3101C13.973 9.28517 15.5923 7.95958 18.0082 7.95958C23.0335 7.95958 23.9573 11.2682 23.9573 15.5657V24.3478H23.9519Z" fill="#FFFEF7"/>
</svg>
