<svg width="179" height="119" viewBox="0 0 179 119" fill="none" xmlns="http://www.w3.org/2000/svg">
<g clip-path="url(#clip0_1_2)">
<path d="M132.877 18.015C134.595 18.015 135.999 16.615 135.999 14.9005C135.999 13.1861 134.595 11.7858 132.877 11.7858C131.158 11.7858 129.755 13.1861 129.755 14.9005C129.755 16.615 131.158 18.015 132.877 18.015ZM132.877 12.5667C134.163 12.5667 135.216 13.6169 135.216 14.9005C135.216 16.1841 134.163 17.2343 132.877 17.2343C131.59 17.2343 130.537 16.1841 130.537 14.9005C130.537 13.6169 131.59 12.5667 132.877 12.5667Z" fill="black"/>
<path d="M132.544 14.9635L133.291 16.2111H134.082L133.308 15.0442C133.776 14.9545 134.001 14.7121 134.001 14.2903C134.001 14.0389 133.911 13.8325 133.749 13.6978C133.578 13.5632 133.389 13.5093 133.021 13.5093H131.905V16.2111H132.544V14.9635ZM132.544 13.994H132.769C132.976 13.994 133.066 13.994 133.165 14.0389C133.291 14.0838 133.344 14.1736 133.344 14.3172C133.344 14.4608 133.282 14.5506 133.165 14.5954C133.066 14.6403 132.985 14.6403 132.769 14.6403H132.544V13.994Z" fill="black"/>
<path d="M9.11385 37.386C16.9322 37.386 20.3961 25.842 18.7406 23.221C18.5787 24.236 17.8409 26.166 15.8796 26.237C14.3861 26.237 13.1175 24.613 13.1175 22.817C13.1175 18.751 16.5634 15.2507 20.1621 15.2507C20.1981 15.2507 20.2431 15.2507 20.2791 15.2507C22.8612 15.2507 24.5437 17.387 24.5437 20.681C24.5437 31.569 6.36077 42.224 6.36077 54C6.36077 58.282 8.9699 61.684 13.2255 61.684C17.481 61.684 22.6633 57.645 28.8083 45.168C26.7659 51.909 25.3534 59.296 29.681 59.063C32.641 59.063 37.3194 52.035 40.5943 45.267C40.5943 45.267 37.8952 54.647 35.628 57.681C35.628 57.698 36.5906 57.878 37.8952 57.878C39.9195 57.878 42.7626 57.438 44.0491 55.284C44.1301 55.068 43.8872 50.823 46.7752 42.439C50.0231 34.199 52.9202 28.733 55.8802 28.58C56.8519 28.58 57.3107 29.119 57.3107 29.989C57.3107 35.402 48.6826 40.132 48.2148 50.006C48.0528 52.869 49.4833 55.517 52.2274 55.517C52.2544 55.517 52.2724 55.517 52.2994 55.517C56.6359 55.517 60.2977 48.839 63.1498 41.945C62.8888 43.427 62.7539 44.863 62.7539 46.173C62.7539 50.545 64.7872 53.237 66.9105 53.237C70.3833 53.237 74.0811 46.775 76.7982 40.213C76.2044 42.942 75.8805 45.258 75.8805 46.891C75.8805 49.773 76.6452 51.478 78.0668 51.478C81.5126 51.478 85.4353 44.127 87.3517 39.181C87.1987 40.24 87.1177 41.272 87.1177 42.26C87.1177 47.143 89.187 49.324 91.7512 49.324C99.9924 49.324 108.675 33.266 112.309 15.6366C113.884 16.8753 116.475 17.9794 116.475 20.143C116.475 25.555 108.414 30.896 107.946 40.761C107.946 40.904 107.937 41.048 107.937 41.191C107.937 43.884 109.358 46.272 111.958 46.272C111.985 46.272 112.003 46.272 112.03 46.272C117.663 46.272 122.998 35.869 125.481 28.176C126.516 28.796 127.667 29.065 128.738 29.065C133.002 29.065 137.276 25.079 139.993 25.079C141.837 25.079 142.278 26.489 142.278 27.27C142.278 28.634 141.585 29.478 139.993 29.837C140.497 30.716 141.774 31.219 143.205 31.219C145.733 31.219 148.738 29.639 148.738 25.744C148.738 23.832 147.308 21.731 144.06 21.731C137.888 21.731 134.451 27.97 128.657 27.97C127.748 27.97 126.641 27.7 125.742 27.036C126.273 25.044 126.471 23.598 126.471 22.189C126.471 22.144 126.471 22.099 126.471 22.055C126.471 21.444 126.435 20.457 125.328 20.457C123.843 20.457 123.106 22.046 123.106 23.787C123.106 25.205 123.592 26.731 124.554 27.584C123.834 30.016 121.693 34.917 119.273 34.917C118.67 34.917 118.166 34.289 118.166 33.454C118.166 28.966 121.765 28.006 121.765 22.315C121.765 17.5575 115.611 17.5485 112.66 14.4428C113.407 9.53291 113.848 7.36971 113.92 4.36271C108.773 4.36271 108.477 11.7949 111.374 14.9634C108.764 29.11 101.882 38.436 97.1314 38.436C95.6199 38.436 94.4773 37.404 94.4773 34.899C94.4773 34.047 94.6212 33.023 94.8641 31.937C100.406 31.623 105.903 27.243 105.903 22.853C105.903 20.627 104.32 19.039 101.72 19.039C96.5376 19.039 91.2114 26.192 88.6562 33.777C86.8838 38.131 85.6782 40.527 83.8968 40.527C83.8878 40.527 83.8788 40.527 83.8698 40.527C83.276 40.527 82.8981 39.737 82.8981 38.615C82.8981 35.07 86.4969 22.27 91.2114 12.7912C92.174 12.9259 93.1097 12.9977 94.0364 12.9977C102.934 12.9977 106.902 9.47901 106.902 6.03221C106.893 2.93551 104.509 0.94281 101.063 0.94281C101.063 0.94281 100.991 0.94281 100.982 0.94281C96.5736 0.94281 92.219 5.19751 88.4133 11.1845C81.0538 9.62271 71.8049 5.45781 63.2847 5.45781C55.4843 5.45781 49.8702 8.86871 49.8702 14.6044C49.8702 20.34 54.4767 22.252 58.7412 22.252C61.7732 22.252 64.6343 21.202 65.5699 19.586C62.8079 18.706 62.0071 16.9651 62.0071 15.1699C62.0071 12.0911 65.1921 8.743 71.364 8.743C76.8792 8.743 82.5473 10.8973 87.8375 12.136C85.1834 16.4983 82.8172 21.651 80.9008 26.722C80.8468 23.948 79.3893 22.934 77.5629 22.934C72.1917 22.934 67.6932 28.67 65.1111 35.151C63.5636 38.822 61.4943 44.36 59.524 44.36C58.9122 44.36 58.3993 43.75 58.3993 42.906C58.3993 38.418 63.2217 35.339 63.2217 29.648C63.2217 27.198 61.4583 25.923 59.1461 25.923C56.2491 25.923 52.8932 28.104 50.8329 31.524C50.7789 26.462 45.3627 27.638 43.9682 28.796C44.8499 35.348 39.8656 47.968 36.4197 47.968C33.6486 47.968 35.3491 42.52 35.3491 42.52C35.3491 42.52 41.3411 24.702 43.0685 22.907C42.6996 20.771 38.6959 18.671 35.403 22.189C35.403 22.189 35.9069 26.561 31.0485 38.535C29.8429 41.371 26.2261 50.186 22.1415 50.186C20.1172 50.186 19.2624 48.327 19.2624 46.649C19.2624 41.057 28.2594 33.14 28.2594 23.419C28.2594 18.042 25.0475 14.2094 20.1172 14.2094C12.2808 14.2094 3.31079 21.767 3.31079 30.591C3.31079 34.881 5.82095 37.377 9.12284 37.377L9.11385 37.386ZM101.846 20.08C102.494 20.08 102.943 20.627 102.943 21.92C102.943 24.586 100.766 29.541 95.0981 30.887C96.4386 26.04 99.5516 20.08 101.846 20.08ZM101 1.97511C102.988 1.97511 103.96 3.14191 103.96 4.88331C103.96 8.50961 100.01 11.7679 93.1637 11.7679C92.7049 11.7679 92.237 11.741 91.7602 11.7051C94.6572 6.14891 97.9141 1.97511 101 1.97511ZM78.0398 24.101C79.2634 24.101 79.8392 25.142 79.8392 27.117C79.8392 28.356 79.6142 29.855 79.2274 31.426C78.8765 32.494 78.5526 33.544 78.2467 34.576C76.7172 38.678 74.288 42.412 71.9128 42.412C70.7342 42.412 70.1764 41.317 70.1764 38.813C70.1764 34.029 74.36 24.119 78.0398 24.119V24.101Z" fill="black"/>
<path d="M173.749 55.598C174.244 53.902 174.532 52.394 174.532 51.254C174.532 50.051 174.217 49.252 173.497 49.054C173.047 49.171 171.931 50.527 171.931 53.067C171.931 54.288 172.147 55.365 172.48 56.379C171.05 60.93 168.908 64.071 167.271 64.071C166.029 64.071 165.688 62.976 165.688 61.765C165.688 60.284 166.2 58.623 166.2 58.623C166.2 58.623 175.26 32.081 176.988 30.286C176.727 28.778 175.161 26.875 173.002 26.875C172.102 26.875 171.077 27.189 169.952 28.338C170.006 28.652 170.024 29.002 170.024 29.397C170.024 33.661 167.091 42.583 163.051 52.008C163.186 51.37 163.249 50.877 163.249 50.571C163.249 47.672 161.774 46.622 159.902 46.622C154.819 46.622 150.51 51.774 147.882 57.815C144.158 64.978 140.64 68.748 137.419 68.748C135.907 68.748 134.765 67.716 134.765 65.211C134.765 64.359 134.909 63.335 135.152 62.249C139.704 61.989 146.146 58.336 146.191 53.354C146.209 51.128 144.797 49.36 142.007 49.36C137.383 49.36 132.633 55.068 129.853 61.684C129.853 61.702 129.835 61.72 129.835 61.738C129.7 62.052 129.574 62.366 129.457 62.689C126.911 68.972 124.931 72.536 123.582 74.529C123.78 73.667 123.897 72.778 123.897 71.881C123.897 66.199 122.178 65.122 122.178 59.889C122.178 57.115 123.24 55.374 125.255 55.374C125.264 55.374 125.282 55.374 125.291 55.374C126.209 55.374 126.911 55.858 127.594 56.603C127.531 56.119 127.504 55.67 127.504 55.257C127.504 51.882 129.331 50.58 129.412 50.58C129.151 50.194 128.548 50.069 128.197 50.069C120.019 50.069 117.914 66.818 109.915 67.33C110.437 64.987 110.734 62.734 110.734 60.795C110.734 57.295 109.636 54.781 107.522 54.781C102.529 54.781 96.4377 62.833 94.0535 71.207C92.56 75.579 89.9059 83.092 84.9935 86.727C85.1555 87.445 86.3251 87.167 86.3251 87.167C88.9252 85.04 91.2015 81.225 93.0728 76.557C93.0368 77.033 93.0188 77.509 93.0188 77.975C93.0188 82.858 95.0882 85.04 97.6523 85.04C102.961 85.04 107.648 76.396 109.663 68.353C109.69 68.353 109.726 68.353 109.753 68.353C114.891 68.353 117.257 62.967 120.901 57.42C120.658 58.363 120.568 59.278 120.568 60.212C120.568 62.007 121.008 64.502 121.008 66.037C121.008 70.041 119.164 71.872 117.797 71.872C116.771 71.872 116.132 71.001 116.132 70.041C116.132 68.945 116.897 67.159 117.878 66.612C114.378 66.612 110.455 71.468 110.455 76.611C110.455 79.456 112.101 82.257 115.448 82.257C118.525 82.257 123.033 79.232 127.657 69.412C127.495 70.507 127.405 71.584 127.405 72.608C127.405 77.491 129.475 79.672 132.039 79.672C137.32 79.672 141.801 72.733 145.912 63.748C145.399 65.912 145.12 68.012 145.12 69.879C145.12 74.25 147.154 76.943 149.277 76.943C152.516 76.943 155.953 71.315 158.607 65.229C158.085 67.411 157.734 69.493 157.734 71.18C157.734 73.586 158.445 75.193 160.37 75.193C160.433 75.193 160.496 75.193 160.559 75.193C164.437 75.193 170.303 65.409 173.038 57.806C174.514 61.047 177.033 63.847 177.033 68.82C177.033 92.113 136.204 89.285 110.86 89.285C81.6197 89.285 75.2768 95.048 75.2768 101.753C75.2768 106.609 80.2251 108.431 81.8536 108.431C82.0245 86.063 178.436 113.197 178.436 69.726C178.436 62.851 174.936 59.521 173.749 55.634V55.598ZM142.142 50.401C142.79 50.401 143.24 50.948 143.24 52.241C143.24 54.907 141.063 59.862 135.395 61.208C136.735 56.361 139.848 50.401 142.142 50.401ZM103.033 74.116C101.476 74.116 100.405 72.572 100.405 70.373C100.405 63.21 104.94 55.822 107.432 55.822C107.828 55.822 108.17 56.02 108.449 56.361C106.577 57.106 104.994 60.418 104.994 63.38C104.994 65.122 105.831 67.339 108.008 68.084C106.865 71.414 105.102 74.116 103.024 74.116H103.033ZM154.288 66.082C153.11 66.082 152.552 64.987 152.552 62.483C152.552 57.698 156.736 47.789 160.415 47.789C161.639 47.789 162.215 48.83 162.215 50.805C162.215 56.092 158.175 66.091 154.288 66.091V66.082ZM173.362 52.923C173.38 52.429 173.461 52.16 173.488 52.16C173.488 52.16 173.497 52.16 173.497 52.187C173.452 52.438 173.407 52.681 173.353 52.923H173.362Z" fill="black"/>
<path d="M25.919 90.416C22.8511 90.416 20.089 92.373 20.089 95.874C20.089 96.206 20.134 96.529 20.215 96.852C21.4026 94.994 22.2843 94.797 23.067 94.797C24.2456 94.797 24.9834 96.053 24.9834 97.247C24.9834 101.089 21.8884 103.629 18.6405 103.629C15.8694 103.629 13.1073 101.268 13.1073 97.22C13.1073 90.757 19.3332 84.528 24.6595 84.528C24.7674 84.528 24.8664 84.528 24.9744 84.528C26.6478 84.528 28.4562 85.632 29.7788 85.632C30.0936 85.632 31.2003 85.614 31.2003 84.411C31.2003 82.401 21.4116 83.738 21.4116 74.861C21.4116 74.179 21.4835 73.496 21.6275 72.823C24.5335 74.448 27.6105 76.064 31.4702 76.064C36.8234 76.064 39.3156 73.227 39.3156 70.184C39.3156 66.675 35.9957 62.905 29.9137 62.905C23.8317 62.905 20.4039 66.109 19.1173 70.023C16.4182 68.64 13.4852 67.375 9.22064 67.375C5.22597 67.375 0.394592 69.978 0.394592 75.803C0.394592 80.39 4.2633 82.93 8.07802 82.93C11.4879 82.93 14.9067 80.902 14.9067 76.512C14.9067 75.956 14.8527 75.345 14.7358 74.699C14.2769 75.265 13.5032 76.207 11.254 76.207C9.46355 76.207 8.17699 75.013 8.17699 73.326C8.17699 71.055 10.0933 69.547 12.7475 69.547C14.9067 69.547 16.8591 70.283 18.7934 71.261C18.6585 71.953 18.5865 72.653 18.5865 73.362C18.5865 77.563 21.0337 81.799 26.018 83.451C25.8381 83.451 24.7224 83.451 24.5245 83.451C10.1833 83.451 2.53588 94.42 2.53588 103.665C2.53588 111.187 7.31328 118.009 16.9221 118.009C28.3392 118.009 34.1693 108.27 34.1693 100.362C34.1693 94.949 31.4432 90.398 25.919 90.398V90.416ZM29.4189 66.271C32.2889 66.271 33.7464 67.94 33.7464 70.059C33.7464 71.818 32.4419 73.532 29.7967 73.532C26.6388 73.532 24.2636 72.635 22.0054 71.522C23.085 68.604 25.6041 66.271 29.4099 66.271H29.4189Z" fill="black"/>
<path d="M77.3463 88.154C85.8304 88.154 91.9394 74.933 91.9394 65.992C91.9394 61.424 90.14 57.914 86.7841 57.914C83.0863 57.914 78.4619 64.673 77.8681 72.581C76.6985 72.698 75.6998 73.272 74.8631 74.107C77.4182 67.087 79.6765 61.235 80.3333 60.553C79.9644 58.417 76.2666 55.957 72.4789 59.835C72.4789 59.835 73.0637 62.779 70.5985 70.436C67.7015 77.742 63.5179 80.803 60.6659 80.803C53.1804 80.803 60.4409 62.519 64.6785 62.519C65.8391 62.519 66.4599 63.407 66.4599 64.736C66.4599 65.624 66.172 67.231 65.0024 67.832C65.0024 67.815 65.0024 67.806 65.0024 67.788C65.0024 66.262 63.7248 66.181 63.4099 66.181C61.8175 66.181 60.6749 67.761 60.6749 69.717C60.6749 71.504 62.0334 72.419 63.356 72.419C65.8391 72.419 67.6025 68.281 67.6025 65.319C67.6025 62.59 66.154 61.468 64.7415 61.468C61.2687 61.468 57.265 65.364 54.35 70.552C54.377 70.193 54.386 69.843 54.386 69.502C54.386 66.082 53.0904 63.712 49.9594 63.712C46.0368 63.712 42.5459 68.245 42.5459 71.611C42.5459 73.963 43.9944 75.301 45.6949 75.301C48.5559 75.301 50.3463 71.611 50.3463 69.421C50.3463 68.254 49.9235 67.545 49.3476 67.061C49.2667 67.958 48.9068 68.658 48.1331 68.658C47.6922 68.658 47.2783 68.201 47.2783 67.5C47.2783 66.36 48.1151 64.709 50.1664 64.709C52.1007 64.709 53.2613 66.576 53.2613 69.242C53.2613 74.636 49.4916 83.334 44.4263 83.334C42.6179 83.191 41.8621 82.024 41.8621 80.722C41.8621 79.178 42.9148 77.823 44.5073 77.392C44.5073 77.392 44.2823 76.279 41.7362 76.234C37.0668 76.234 32.3613 82.49 32.3613 87.849C32.3613 92.651 35.1054 94.527 37.3367 94.527C42.0331 94.527 46.9724 89.169 50.3193 82.921C50.2743 83.505 50.2473 84.079 50.2473 84.654C50.2473 89.537 52.3167 91.718 54.8808 91.718C59.7122 91.718 64.2377 85.354 68.1873 77.033L62.5282 93.082C62.5282 93.082 60.117 100.505 57.6609 103.853C57.355 104.051 62.5642 106.151 65.4343 102.435C65.1823 101.879 65.5332 100.613 65.6142 100.371C65.6142 100.371 68.5382 91.799 71.7951 82.598C72.092 85.722 74.5392 88.154 77.3283 88.154H77.3463ZM86.5052 59.018C87.9447 59.018 88.5745 60.759 88.5745 63.174C88.5745 68.622 85.3806 77.616 81.179 77.616C79.9374 77.545 79.2266 76.467 79.2266 75.372C79.2266 74.439 79.7934 73.344 80.4232 73.128C79.9554 72.751 79.5235 72.617 78.9387 72.581C79.6135 64.897 83.9591 59.027 86.5052 59.027V59.018Z" fill="black"/>
</g>
<defs>
<clipPath id="clip0_1_2">
<rect width="179" height="119" fill="white"/>
</clipPath>
</defs>
</svg>
