<svg width="582" height="383" viewBox="0 0 582 383" fill="none" xmlns="http://www.w3.org/2000/svg">
<g clip-path="url(#clip0_515_1931)">
<path d="M433.058 55.8432C438.69 55.8432 443.265 51.2758 443.265 45.6526C443.265 40.0294 438.69 35.4619 433.058 35.4619C427.426 35.4619 422.851 40.0294 422.851 45.6526C422.851 51.2758 427.426 55.8432 433.058 55.8432ZM433.058 38.0179C437.276 38.0179 440.716 41.4407 440.716 45.6637C440.716 49.8866 437.288 53.3095 433.058 53.3095C428.828 53.3095 425.4 49.8866 425.4 45.6637C425.4 41.4407 428.828 38.0179 433.058 38.0179Z" fill="white"/>
<path d="M431.978 45.8637L434.427 49.9422H437.031L434.494 46.1193C436.019 45.8303 436.764 45.0191 436.764 43.6411C436.764 42.8187 436.475 42.1297 435.93 41.7074C435.373 41.2518 434.761 41.0962 433.547 41.0962H429.897V49.9422H431.978V45.8637ZM431.978 42.6965H432.724C433.414 42.6965 433.692 42.7187 434.015 42.8521C434.416 42.9965 434.616 43.3077 434.616 43.7522C434.616 44.1967 434.416 44.5079 434.015 44.6524C433.692 44.7857 433.425 44.8079 432.724 44.8079H431.978V42.6854V42.6965Z" fill="white"/>
<path d="M28.4951 119.232C54.0516 119.232 65.3717 81.4589 59.9732 72.9018C59.4612 76.2135 57.0347 82.5368 50.6233 82.7702C45.7257 82.7702 41.5961 77.4693 41.5961 71.5794C41.5961 58.2771 52.8606 46.8306 64.6259 46.8306C64.7484 46.8306 64.8819 46.8306 65.0044 46.8306C73.4416 46.8306 78.9291 53.8207 78.9291 64.5893C78.9291 100.207 19.5013 135.057 19.5013 173.597C19.5013 187.622 28.0276 198.735 41.9301 198.735C55.8325 198.735 72.796 185.51 92.8872 144.703C86.2087 166.74 81.5894 190.911 95.7367 190.167C105.421 190.167 120.703 167.174 131.4 145.037C131.4 145.037 122.584 175.731 115.16 185.655C115.16 185.721 118.321 186.31 122.584 186.31C129.207 186.31 138.502 184.888 142.698 177.842C142.954 177.131 142.175 163.24 151.603 135.813C162.221 108.864 171.694 90.9716 181.355 90.4715C184.539 90.4715 186.03 92.2385 186.03 95.0834C186.03 112.775 157.814 128.278 156.3 160.55C155.777 169.93 160.463 178.576 169.412 178.576C169.49 178.576 169.579 178.576 169.657 178.576C183.838 178.576 195.803 156.739 205.142 134.19C204.285 139.047 203.84 143.725 203.84 148.015C203.84 162.306 210.474 171.119 217.431 171.119C228.773 171.119 240.861 149.982 249.755 128.511C247.807 137.435 246.738 145.003 246.738 150.349C246.738 159.761 249.231 165.362 253.884 165.362C265.137 165.362 277.983 141.314 284.249 125.144C283.759 128.6 283.492 131.99 283.492 135.224C283.492 151.204 290.26 158.339 298.641 158.339C325.589 158.339 353.951 105.819 365.85 48.1419C370.992 52.2093 379.463 55.8211 379.463 62.889C379.463 80.5809 353.105 98.0506 351.58 130.334C351.558 130.801 351.535 131.268 351.535 131.734C351.535 140.558 356.188 148.359 364.681 148.359C364.759 148.359 364.848 148.359 364.926 148.359C383.347 148.359 400.778 114.342 408.904 89.1491C412.299 91.1828 416.061 92.0496 419.545 92.0496C433.481 92.0496 447.461 79.014 456.355 79.014C462.377 79.014 463.824 83.6148 463.824 86.193C463.824 90.6605 461.542 93.4276 456.344 94.5945C457.991 97.4728 462.165 99.1286 466.84 99.1286C475.121 99.1286 484.939 93.9499 484.939 81.2255C484.939 74.9688 480.275 68.0899 469.645 68.0899C449.454 68.0899 438.234 88.4934 419.3 88.4934C416.317 88.4934 412.711 87.6044 409.761 85.4373C411.497 78.914 412.154 74.202 412.154 69.5901C412.154 69.4457 412.154 69.3012 412.154 69.1456C412.154 67.1453 412.02 63.9114 408.425 63.9114C403.561 63.9114 401.168 69.1012 401.168 74.8021C401.168 79.4474 402.76 84.4372 405.91 87.2154C403.572 95.1724 396.549 111.197 388.657 111.197C386.687 111.197 385.05 109.153 385.05 106.43C385.05 91.7384 396.816 88.6045 396.816 69.9791C396.816 54.4319 376.713 54.3986 367.052 44.219C369.478 28.1496 370.925 21.0817 371.159 11.2466H371.148C354.34 11.2466 353.35 35.562 362.811 45.9193C354.285 92.1941 331.778 122.699 316.262 122.699C311.319 122.699 307.602 119.332 307.602 111.131C307.602 108.341 308.058 105.007 308.86 101.429C326.981 100.407 344.946 86.0597 344.946 71.7238C344.946 64.4337 339.77 59.255 331.266 59.255C314.336 59.255 296.905 82.6591 288.557 107.463C282.758 121.699 278.828 129.556 272.996 129.556C272.962 129.556 272.929 129.556 272.896 129.556C270.959 129.556 269.723 126.978 269.723 123.311C269.723 111.697 281.5 69.8235 296.883 38.8292C300.022 39.2626 303.105 39.5182 306.11 39.5182C335.195 39.5182 348.174 28.0051 348.174 16.7254C348.14 6.51249 340.338 0.000244141 329.062 0.000244141C329.062 0.000244141 328.828 0.000244141 328.784 0.000244141C314.369 0.000244141 300.155 13.9138 287.7 33.5172C263.635 28.4163 233.403 14.7917 205.543 14.7917C180.042 14.7917 161.687 25.9492 161.687 44.6969C161.687 63.4446 176.736 69.7235 190.694 69.7235C200.601 69.7235 209.973 66.2784 213 60.9997C203.973 58.1104 201.335 52.4094 201.335 46.5528C201.335 36.4733 211.743 25.538 231.912 25.538C249.933 25.538 268.477 32.5726 285.763 36.6399C277.092 50.898 269.356 67.7787 263.089 84.3705C262.911 75.3022 258.158 71.9794 252.181 71.9794C234.639 71.9794 219.924 90.7605 211.487 111.931C206.422 123.955 199.666 142.058 193.221 142.058C191.217 142.058 189.537 140.047 189.537 137.291C189.537 122.599 205.298 112.542 205.298 93.9166C205.298 85.893 199.521 81.7256 191.974 81.7256C182.513 81.7256 171.527 88.8713 164.793 100.062C164.603 83.5037 146.905 87.3599 142.353 91.1272C145.247 112.553 128.951 153.86 117.676 153.86C108.615 153.86 114.181 136.046 114.181 136.046C114.181 136.046 133.771 77.7582 139.403 71.8905C138.212 64.9115 125.111 58.0437 114.336 69.5457C114.336 69.5457 115.984 83.8593 100.111 123.033C96.1597 132.323 84.3387 161.139 71.0039 161.139C64.3922 161.139 61.6094 155.061 61.6094 149.571C61.6094 131.279 91.0283 105.385 91.0283 73.5686C91.0283 55.9655 80.5319 43.43 64.4256 43.43C38.8023 43.43 9.49469 68.1454 9.49469 97.0282C9.49469 111.075 17.6981 119.232 28.4951 119.232ZM331.633 62.6C333.759 62.6 335.229 64.3781 335.229 68.6233C335.229 77.347 328.116 93.561 309.594 97.9506C313.969 82.0923 324.142 62.6 331.633 62.6ZM328.862 3.38972C335.351 3.38972 338.534 7.19038 338.534 12.9136C338.534 24.7823 325.612 35.4175 303.25 35.4175C301.758 35.4175 300.233 35.3397 298.664 35.2064C308.125 17.0254 318.788 3.38972 328.862 3.38972ZM253.817 75.769C257.813 75.769 259.706 79.1807 259.706 85.6263C259.706 89.6825 258.971 94.5834 257.702 99.7065C256.556 103.207 255.487 106.641 254.507 109.997C249.499 123.433 241.562 135.613 233.804 135.613C229.942 135.613 228.127 132.034 228.127 123.833C228.127 108.175 241.796 75.7579 253.817 75.7579V75.769Z" fill="white"/>
<path d="M566.673 178.798C568.298 173.242 569.222 168.318 569.222 164.584C569.222 160.65 568.187 158.039 565.849 157.383C564.391 157.761 560.718 162.206 560.718 170.497C560.718 174.486 561.419 178.031 562.521 181.332C557.857 196.223 550.834 206.503 545.502 206.503C541.439 206.503 540.315 202.913 540.315 198.968C540.315 194.112 542.007 188.7 542.007 188.7C542.007 188.7 571.626 101.862 577.258 95.9948C576.412 91.0717 571.292 84.8262 564.235 84.8262C561.285 84.8262 557.924 85.8708 554.273 89.6048C554.44 90.6161 554.518 91.7718 554.518 93.0609C554.518 107.019 544.945 136.202 531.711 167.029C532.145 164.94 532.367 163.329 532.367 162.34C532.367 152.86 527.537 149.426 521.437 149.426C504.819 149.426 490.749 166.274 482.134 186.033C469.957 209.47 458.47 221.806 447.94 221.806C442.998 221.806 439.28 218.438 439.28 210.237C439.28 207.447 439.736 204.114 440.538 200.535C455.409 199.691 476.49 187.722 476.624 171.441C476.691 164.151 472.06 158.361 462.944 158.361C447.828 158.361 432.312 177.02 423.218 198.679C423.196 198.735 423.174 198.79 423.151 198.846C422.717 199.868 422.305 200.902 421.905 201.947C413.579 222.495 407.123 234.141 402.693 240.687C403.35 237.853 403.706 234.952 403.706 232.041C403.706 213.449 398.073 209.926 398.073 192.801C398.073 183.721 401.546 178.02 408.114 178.02C408.147 178.02 408.191 178.02 408.225 178.02C411.219 178.02 413.512 179.598 415.738 182.054C415.538 180.476 415.438 178.998 415.438 177.631C415.438 166.596 421.415 162.329 421.671 162.329C420.825 161.062 418.855 160.65 417.697 160.65C390.972 160.65 384.093 215.427 357.947 217.105C359.661 209.437 360.607 202.058 360.607 195.723C360.607 184.255 357.012 176.042 350.099 176.042C333.77 176.042 313.857 202.391 306.077 229.774C301.213 244.065 292.531 268.658 276.469 280.549C277.003 282.883 280.821 281.972 280.821 281.972C289.314 275.026 296.749 262.546 302.893 247.266C302.782 248.832 302.726 250.388 302.726 251.911C302.726 267.891 309.494 275.026 317.876 275.026C335.24 275.026 350.545 246.765 357.156 220.45C357.257 220.45 357.357 220.45 357.457 220.45C374.242 220.45 382.001 202.824 393.899 184.677C393.109 187.755 392.82 190.756 392.82 193.801C392.82 199.668 394.267 207.836 394.267 212.848C394.267 225.928 388.245 231.941 383.759 231.941C380.398 231.941 378.316 229.107 378.316 225.962C378.316 222.383 380.821 216.527 384.004 214.738C372.573 214.738 359.728 230.618 359.728 247.443C359.728 256.756 365.093 265.913 376.057 265.913C386.13 265.913 400.845 256 415.961 223.884C415.438 227.473 415.148 230.974 415.148 234.33C415.148 250.311 421.916 257.445 430.297 257.445C447.561 257.445 462.21 234.73 475.645 205.347C473.953 212.415 473.051 219.294 473.051 225.395C473.051 239.686 479.685 248.499 486.642 248.499C497.227 248.499 508.469 230.085 517.152 210.181C515.437 217.316 514.291 224.117 514.291 229.64C514.291 237.497 516.606 242.776 522.917 242.776C523.118 242.776 523.329 242.776 523.541 242.754C536.208 242.754 555.408 210.737 564.324 185.866C569.155 196.479 577.381 205.636 577.381 221.883C577.381 298.074 443.91 288.817 361.086 288.817C265.505 288.817 244.757 307.665 244.757 329.591C244.757 345.471 260.941 351.439 266.251 351.439C266.818 278.282 581.978 367.031 581.978 224.828C581.978 202.335 570.546 191.445 566.651 178.731L566.673 178.798ZM463.367 161.784C465.493 161.784 466.962 163.562 466.962 167.807C466.962 176.531 459.85 192.745 441.328 197.135C445.702 181.276 455.876 161.784 463.367 161.784ZM335.529 239.386C330.431 239.386 326.936 234.319 326.936 227.14C326.936 203.691 341.774 179.532 349.899 179.532C351.19 179.532 352.303 180.165 353.238 181.299C347.116 183.732 341.94 194.579 341.94 204.247C341.94 209.959 344.69 217.205 351.802 219.639C348.062 230.529 342.286 239.375 335.518 239.375L335.529 239.386ZM503.06 213.082C499.197 213.082 497.383 209.503 497.383 201.302C497.383 185.644 511.052 153.227 523.073 153.227C527.069 153.227 528.961 156.639 528.961 163.084C528.961 180.387 515.749 213.082 503.06 213.082ZM565.404 170.052C565.46 168.43 565.716 167.552 565.827 167.552C565.849 167.552 565.86 167.574 565.86 167.629C565.716 168.441 565.56 169.252 565.404 170.052Z" fill="white"/>
<path d="M83.437 292.684C73.397 292.684 64.3921 299.097 64.3921 310.532C64.3921 311.61 64.5257 312.677 64.7928 313.733C68.6886 307.654 71.5493 307.009 74.1205 307.009C77.9829 307.009 80.3983 311.121 80.3983 315.033C80.3983 327.613 70.2803 335.914 59.6615 335.914C50.601 335.914 41.585 328.202 41.585 314.944C41.585 293.807 61.9322 273.414 79.3631 273.414C79.6971 273.414 80.0421 273.437 80.3872 273.448C85.8636 273.448 91.7629 277.06 96.104 277.06C97.1391 277.06 100.768 277.015 100.768 273.059C100.768 266.491 68.7665 270.858 68.7665 241.798C68.7665 239.564 69.0114 237.33 69.4789 235.141C78.9847 240.442 89.0359 245.743 101.636 245.743C119.123 245.743 127.282 236.464 127.282 226.517C127.282 215.049 116.429 202.702 96.5603 202.702C76.6917 202.702 65.4829 213.171 61.2532 225.995C52.4376 221.472 42.8539 217.349 28.8846 217.349C15.8392 217.349 0.0222778 225.851 0.0222778 244.932C0.0222778 259.945 12.6558 268.247 25.1447 268.247C36.3089 268.247 47.4732 261.624 47.4732 247.243C47.4732 245.41 47.2951 243.443 46.9055 241.32C45.4028 243.176 42.8761 246.265 35.5075 246.265C29.6638 246.265 25.4563 242.376 25.4563 236.853C25.4563 229.44 31.7119 224.495 40.4051 224.495C47.4732 224.495 53.8512 226.906 60.1624 230.096C59.7171 232.352 59.4834 234.663 59.4834 236.964C59.4834 250.699 67.4754 264.557 83.7821 269.969C83.181 269.969 79.5412 269.958 78.9179 269.958C32.0347 269.958 7.04586 305.853 7.04586 336.07C7.04586 360.674 22.6736 383 54.0627 383C91.3845 383 110.429 351.15 110.429 325.279C110.429 307.587 101.525 292.684 83.4482 292.684H83.437ZM94.8907 213.704C104.263 213.704 109.049 219.161 109.049 226.095C109.049 231.863 104.797 237.464 96.1485 237.464C85.8302 237.464 78.0608 234.519 70.6811 230.874C74.2095 221.328 82.4575 213.693 94.8796 213.693L94.8907 213.704Z" fill="white"/>
<path d="M251.547 285.294C279.296 285.294 299.265 242.042 299.265 212.782C299.265 197.835 293.377 186.344 282.413 186.344C270.336 186.344 255.209 208.448 253.272 234.308C249.454 234.685 246.17 236.564 243.443 239.297C251.803 216.327 259.194 197.179 261.32 194.967C260.129 187.988 248.029 179.943 235.641 192.623C235.641 192.623 237.555 202.258 229.508 227.295C220.046 251.188 206.355 261.223 197.039 261.223C172.573 261.223 196.315 201.413 210.162 201.413C213.969 201.413 215.995 204.336 215.995 208.659C215.995 211.559 215.049 216.816 211.242 218.772C211.242 218.716 211.242 218.672 211.242 218.627C211.242 213.648 207.068 213.382 206.044 213.382C200.846 213.382 197.094 218.56 197.094 224.939C197.094 230.774 201.547 233.796 205.866 233.796C213.98 233.796 219.746 220.25 219.746 210.559C219.746 201.624 215.015 197.968 210.385 197.968C199.031 197.968 185.941 210.704 176.402 227.673C176.48 226.495 176.536 225.351 176.536 224.239C176.536 213.048 172.295 205.291 162.054 205.291C149.243 205.291 137.834 220.105 137.834 231.118C137.834 238.797 142.564 243.187 148.13 243.187C157.491 243.187 163.323 231.107 163.323 223.961C163.323 220.139 161.943 217.816 160.051 216.249C159.806 219.194 158.593 221.472 156.088 221.472C154.652 221.472 153.306 219.972 153.306 217.671C153.306 213.949 156.055 208.548 162.756 208.548C169.089 208.548 172.874 214.66 172.874 223.372C172.874 241.009 160.552 269.48 144.011 269.48C138.09 269.003 135.63 265.18 135.63 260.923C135.63 255.867 139.08 251.422 144.278 250.021C144.278 250.021 143.544 246.388 135.207 246.243C119.924 246.243 104.552 266.702 104.552 284.25C104.552 299.975 113.535 306.109 120.815 306.109C136.153 306.109 152.315 288.573 163.268 268.147C163.101 270.058 163.023 271.948 163.023 273.815C163.023 289.795 169.79 296.93 178.172 296.93C193.956 296.93 208.76 276.126 221.66 248.888L203.172 301.386C203.172 301.386 195.28 325.668 187.255 336.637C186.264 337.292 203.294 344.16 212.667 332.002C211.843 330.191 212.989 326.046 213.256 325.257C213.256 325.257 222.818 297.207 233.47 267.113C234.45 277.326 242.442 285.272 251.558 285.272L251.547 285.294ZM281.489 189.967C286.208 189.967 288.256 195.656 288.256 203.547C288.256 221.361 277.816 250.777 264.08 250.777C260.006 250.533 257.691 247.032 257.691 243.431C257.691 240.375 259.539 236.797 261.609 236.097C260.073 234.863 258.682 234.43 256.756 234.297C258.96 209.159 273.163 189.955 281.489 189.955V189.967Z" fill="white"/>
</g>
<defs>
<clipPath id="clip0_515_1931">
<rect width="582" height="383" fill="white"/>
</clipPath>
</defs>
</svg>
